<mxfile host="app.diagrams.net" modified="2020-03-17T09:35:41.959Z" agent="Mozilla/5.0 (Windows NT 10.0; WOW64) AppleWebKit/537.36 (KHTML, like Gecko) Chrome/80.0.3987.132 Safari/537.36" etag="0-enroBEr54wCQ5w9HuJ" version="12.8.5" type="github">
  <diagram id="wjSjPYN3a7mQub9L3QAU" name="第 1 页">
    <mxGraphModel dx="782" dy="437" grid="1" gridSize="10" guides="1" tooltips="1" connect="1" arrows="1" fold="1" page="1" pageScale="1" pageWidth="827" pageHeight="1169" math="0" shadow="0">
      <root>
        <mxCell id="0" />
        <mxCell id="1" parent="0" />
        <mxCell id="Wfe6coBTv527p-xqTUNL-4" style="edgeStyle=orthogonalEdgeStyle;rounded=0;orthogonalLoop=1;jettySize=auto;html=1;exitX=1;exitY=0.5;exitDx=0;exitDy=0;entryX=0;entryY=0.5;entryDx=0;entryDy=0;" edge="1" parent="1" source="Wfe6coBTv527p-xqTUNL-1" target="Wfe6coBTv527p-xqTUNL-2">
          <mxGeometry relative="1" as="geometry" />
        </mxCell>
        <mxCell id="Wfe6coBTv527p-xqTUNL-1" value="AppMain" style="rounded=0;whiteSpace=wrap;html=1;" vertex="1" parent="1">
          <mxGeometry x="80" y="180" width="86" height="50" as="geometry" />
        </mxCell>
        <mxCell id="Wfe6coBTv527p-xqTUNL-5" style="edgeStyle=orthogonalEdgeStyle;rounded=0;orthogonalLoop=1;jettySize=auto;html=1;exitX=1;exitY=0.5;exitDx=0;exitDy=0;entryX=0;entryY=0.5;entryDx=0;entryDy=0;curved=1;" edge="1" parent="1" source="Wfe6coBTv527p-xqTUNL-2" target="Wfe6coBTv527p-xqTUNL-3">
          <mxGeometry relative="1" as="geometry">
            <mxPoint x="380" y="130" as="targetPoint" />
          </mxGeometry>
        </mxCell>
        <mxCell id="Wfe6coBTv527p-xqTUNL-7" style="edgeStyle=orthogonalEdgeStyle;curved=1;rounded=0;orthogonalLoop=1;jettySize=auto;html=1;exitX=1;exitY=0.5;exitDx=0;exitDy=0;entryX=-0.022;entryY=0.633;entryDx=0;entryDy=0;entryPerimeter=0;" edge="1" parent="1" source="Wfe6coBTv527p-xqTUNL-2" target="Wfe6coBTv527p-xqTUNL-6">
          <mxGeometry relative="1" as="geometry" />
        </mxCell>
        <mxCell id="Wfe6coBTv527p-xqTUNL-2" value="AppWindows" style="rounded=0;whiteSpace=wrap;html=1;" vertex="1" parent="1">
          <mxGeometry x="200" y="180" width="100" height="50" as="geometry" />
        </mxCell>
        <mxCell id="Wfe6coBTv527p-xqTUNL-9" style="rounded=0;orthogonalLoop=1;jettySize=auto;html=1;exitX=1;exitY=0.5;exitDx=0;exitDy=0;entryX=0;entryY=0.5;entryDx=0;entryDy=0;" edge="1" parent="1" source="Wfe6coBTv527p-xqTUNL-3" target="Wfe6coBTv527p-xqTUNL-8">
          <mxGeometry relative="1" as="geometry" />
        </mxCell>
        <mxCell id="Wfe6coBTv527p-xqTUNL-12" style="rounded=0;orthogonalLoop=1;jettySize=auto;html=1;exitX=1;exitY=0.5;exitDx=0;exitDy=0;entryX=0;entryY=0.75;entryDx=0;entryDy=0;" edge="1" parent="1" source="Wfe6coBTv527p-xqTUNL-3" target="Wfe6coBTv527p-xqTUNL-10">
          <mxGeometry relative="1" as="geometry" />
        </mxCell>
        <mxCell id="Wfe6coBTv527p-xqTUNL-13" style="edgeStyle=none;rounded=0;orthogonalLoop=1;jettySize=auto;html=1;exitX=1;exitY=0.5;exitDx=0;exitDy=0;entryX=0;entryY=0.5;entryDx=0;entryDy=0;" edge="1" parent="1" source="Wfe6coBTv527p-xqTUNL-3" target="Wfe6coBTv527p-xqTUNL-11">
          <mxGeometry relative="1" as="geometry" />
        </mxCell>
        <mxCell id="Wfe6coBTv527p-xqTUNL-3" value="Recevier" style="rounded=0;whiteSpace=wrap;html=1;" vertex="1" parent="1">
          <mxGeometry x="370" y="100" width="120" height="60" as="geometry" />
        </mxCell>
        <mxCell id="Wfe6coBTv527p-xqTUNL-6" value="Sender" style="rounded=0;whiteSpace=wrap;html=1;" vertex="1" parent="1">
          <mxGeometry x="370" y="220" width="120" height="60" as="geometry" />
        </mxCell>
        <mxCell id="Wfe6coBTv527p-xqTUNL-8" value="BGWindow" style="rounded=1;whiteSpace=wrap;html=1;" vertex="1" parent="1">
          <mxGeometry x="540" y="30" width="120" height="30" as="geometry" />
        </mxCell>
        <mxCell id="Wfe6coBTv527p-xqTUNL-10" value="FloatWindow" style="rounded=1;whiteSpace=wrap;html=1;" vertex="1" parent="1">
          <mxGeometry x="540" y="90" width="120" height="30" as="geometry" />
        </mxCell>
        <mxCell id="Wfe6coBTv527p-xqTUNL-11" value="SendersWindow" style="rounded=1;whiteSpace=wrap;html=1;" vertex="1" parent="1">
          <mxGeometry x="540" y="150" width="120" height="30" as="geometry" />
        </mxCell>
      </root>
    </mxGraphModel>
  </diagram>
</mxfile>
